:FULLY-SPECIFIED
:FORCE-ALL-JOINTS-BE-3DOF
:DEGREES
611
root 5.59575 16.6843 -3.77933 6.08629 51.4051 -2.12298
lfemur -17.8839 24.9051 -22.0619
ltibia 40.1223 0 0
lfoot -32.5463 25.006 0
ltoes 18.7203 0 0
rfemur -52.9525 -18.0069 28.2075
rtibia 61.9331 0 0
rfoot 7.83631 29.6766 0
rtoes -3.20292 0 0
lowerback 3.42571 -3.3601 -4.89054
upperback -0.0192827 -4.65729 1.09543
thorax -1.45354 -2.28946 4.06209
lowerneck -8.4757 -9.27929 -0.413295
upperneck 14.9766 -13.2548 4.52824
head 6.27742 -6.08503 0.424955
lclavicle 9.53452e-14 8.68462e-15 0
lhumerus -22.3336 -42.8384 93.4049
lradius 57.0243 0 0
lwrist 20.5134 0 0
lhand -10.2065 0.38704 0
lfingers 7.12502 0 0
lthumb 15.7854 29.7729 0
rclavicle 9.53452e-14 8.68462e-15 0
rhumerus 21.4079 3.4945 -71.9113
rradius 117.625 0 0
rwrist -58.7608 0 0
rhand -27.1227 -22.6571 0
rfingers 7.12502 0 0
rthumb -0.538634 -772.635 0
612
root 5.5787 16.7049 -3.7888 11.3584 49.1415 2.79709
lfemur -17.6638 25.1123 -22.1073
ltibia 39.5526 0 0
lfoot -32.5644 24.8339 0
ltoes 19.777 0 0
rfemur -52.742 -18.1202 28.1111
rtibia 62.0648 0 0
rfoot 7.68416 29.0531 0
rtoes -2.72555 0 0
lowerback 3.14816 -3.43323 -4.77955
upperback -0.221211 -4.74563 1.12819
thorax -1.50051 -2.32997 4.02719
lowerneck -8.67437 -9.05853 -0.216232
upperneck 15.0793 -12.9736 4.38991
head 6.30851 -5.9429 0.364719
lclavicle 9.29209e-14 6.91456e-15 0
lhumerus -22.376 -44.071 94.24
lradius 57.8128 0 0
lwrist 20.377 0 0
lhand -9.87722 0.392411 0
lfingers 7.12502 0 0
lthumb 16.1029 29.7615 0
rclavicle 9.29209e-14 6.91456e-15 0
rhumerus 20.2198 3.25071 -71.3745
rradius 116.18 0 0
rwrist -58.7457 0 0
rhand -27.3247 -23.0297 0
rfingers 7.12502 0 0
rthumb -0.733722 -773.006 0
613
root 5.56832 16.7253 -3.79911 15.5187 47.1895 6.63474
lfemur -17.4211 25.1457 -22.1051
ltibia 38.9974 0 0
lfoot -32.5639 24.5626 0
ltoes 20.7361 0 0
rfemur -52.4319 -18.1554 27.8556
rtibia 62.1521 0 0
rfoot 7.60548 28.2749 0
rtoes -2.38535 0 0
lowerback 2.87806 -3.48694 -4.65707
upperback -0.410688 -4.80759 1.18051
thorax -1.54126 -2.35774 4.0053
lowerneck -8.85348 -8.86715 -0.0390026
upperneck 15.1951 -12.7306 4.25046
head 6.34279 -5.82011 0.304162
lclavicle 8.9878e-14 5.04263e-15 0
lhumerus -22.3986 -45.1378 94.9569
lradius 58.5695 0 0
lwrist 20.2581 0 0
lhand -9.63465 0.362957 0
lfingers 7.12502 0 0
lthumb 16.337 29.7203 0
rclavicle 8.9878e-14 5.04263e-15 0
rhumerus 19.1729 3.14529 -70.7988
rradius 114.963 0 0
rwrist -58.7078 0 0
rhand -27.5194 -23.3204 0
rfingers 7.12502 0 0
rthumb -0.921753 -773.295 0
614
root 5.56396 16.7452 -3.80976 18.6628 45.5152 9.48201
lfemur -17.1592 25.023 -22.0618
ltibia 38.4575 0 0
lfoot -32.5477 24.2003 0
ltoes 21.6031 0 0
rfemur -52.0365 -18.1236 27.4608
rtibia 62.2007 0 0
rfoot 7.58884 27.3529 0
rtoes -2.16834 0 0
lowerback 2.61501 -3.52315 -4.52521
upperback -0.588468 -4.84578 1.24969
thorax -1.57609 -2.37403 3.99488
lowerneck -9.01444 -8.70261 0.119462
upperneck 15.3191 -12.5221 4.11148
head 6.37893 -5.71496 0.244033
lclavicle 8.62611e-14 3.08483e-15 0
lhumerus -22.4092 -46.0578 95.5729
lradius 59.2981 0 0
lwrist 20.1566 0 0
lhand -9.46968 0.303313 0
lfingers 7.12502 0 0
lthumb 16.4961 29.6535 0
rclavicle 8.62611e-14 3.08483e-15 0
rhumerus 18.2416 3.16211 -70.1923
rradius 113.941 0 0
rwrist -58.6385 0 0
rhand -27.7071 -23.543 0
rfingers 7.12502 0 0
rthumb -1.10304 -773.517 0
615
root 5.56498 16.7644 -3.82026 20.8867 44.0849 11.4309
lfemur -16.8817 24.762 -21.9843
ltibia 37.9334 0 0
lfoot -32.5191 23.7555 0
ltoes 22.3833 0 0
rfemur -51.5706 -18.0357 26.9467
rtibia 62.2162 0 0
rfoot 7.6228 26.2986 0
rtoes -2.06052 0 0
lowerback 2.3586 -3.54373 -4.38606
upperback -0.755308 -4.86279 1.33306
thorax -1.60533 -2.38009 3.99438
lowerneck -9.15863 -8.56236 0.260228
upperneck 15.4459 -12.3449 3.97458
head 6.41561 -5.62576 0.185077
lclavicle 8.2115e-14 1.05717e-15 0
lhumerus -22.4156 -46.85 96.1052
lradius 60.002 0 0
lwrist 20.0725 0 0
lhand -9.37327 0.218113 0
lfingers 7.12502 0 0
lthumb 16.5892 29.565 0
rclavicle 8.2115e-14 1.05717e-15 0
rhumerus 17.4 3.28504 -69.5635
rradius 113.081 0 0
rwrist -58.5292 0 0
rhand -27.8882 -23.7109 0
rfingers 7.12502 0 0
rthumb -1.27788 -773.683 0
616
root 5.57071 16.7827 -3.83011 22.286 42.8646 12.5735
lfemur -16.5919 24.3803 -21.8793
ltibia 37.4257 0 0
lfoot -32.4813 23.2363 0
ltoes 23.0822 0 0
rfemur -51.0484 -17.9031 26.3332
rtibia 62.2045 0 0
rfoot 7.69593 25.123 0
rtoes -2.04792 0 0
lowerback 2.10843 -3.5506 -4.2417
upperback -0.911965 -4.86119 1.42791
thorax -1.62929 -2.37719 4.00225
lowerneck -9.28745 -8.44386 0.384362
upperneck 15.5706 -12.1954 3.84138
head 6.45149 -5.55083 0.128041
lclavicle 7.74844e-14 -1.02437e-15 0
lhumerus -22.4256 -47.5332 96.5712
lradius 60.6849 0 0
lwrist 20.0059 0 0
lhand -9.33637 0.111992 0
lfingers 7.12502 0 0
lthumb 16.6249 29.4589 0
rclavicle 7.74844e-14 -1.02437e-15 0
rhumerus 16.6226 3.49797 -68.9204
rradius 112.353 0 0
rwrist -58.3711 0 0
rhand -28.0629 -23.8379 0
rfingers 7.12502 0 0
rthumb -1.4466 -773.809 0
617
root 5.58051 16.8 -3.83882 22.9567 41.8204 13.0018
lfemur -16.2934 23.8956 -21.7536
ltibia 36.9349 0 0
lfoot -32.4372 22.6512 0
ltoes 23.7052 0 0
rfemur -50.4845 -17.7367 25.6402
rtibia 62.1711 0 0
rfoot 7.79678 23.8374 0
rtoes -2.11654 0 0
lowerback 1.86409 -3.54564 -4.09423
upperback -1.05919 -4.84359 1.53156
thorax -1.64828 -2.36658 4.01695
lowerneck -9.40228 -8.34457 0.492932
upperneck 15.6881 -12.0701 3.71349
head 6.48526 -5.48848 0.0736717
lclavicle 7.24138e-14 -3.14376e-15 0
lhumerus -22.4469 -48.1265 96.9881
lradius 61.3501 0 0
lwrist 19.9567 0 0
lhand -9.34994 -0.0104154 0
lfingers 7.12502 0 0
lthumb 16.612 29.3393 0
rclavicle 7.24138e-14 -3.14376e-15 0
rhumerus 15.8837 3.78477 -68.2715
rradius 111.723 0 0
rwrist -58.1556 0 0
rhand -28.2315 -23.9376 0
rfingers 7.12502 0 0
rthumb -1.6095 -773.907 0
618
root 5.59372 16.816 -3.8459 22.9944 40.9185 12.8078
lfemur -15.9897 23.3255 -21.6139
ltibia 36.4616 0 0
lfoot -32.3902 22.0083 0
ltoes 24.2578 0 0
rfemur -49.8935 -17.5477 24.8875
rtibia 62.1219 0 0
rfoot 7.91392 22.453 0
rtoes -2.2524 0 0
lowerback 1.6252 -3.53075 -3.94575
upperback -1.19775 -4.81257 1.64132
thorax -1.66263 -2.34952 4.03693
lowerneck -9.50453 -8.26195 0.587005
upperneck 15.7931 -11.9656 3.5925
head 6.51558 -5.43702 0.0227166
lclavicle 6.69479e-14 -5.28502e-15 0
lhumerus -22.4874 -48.6486 97.3733
lradius 62.0013 0 0
lwrist 19.925 0 0
lhand -9.40492 -0.144475 0
lfingers 7.12502 0 0
lthumb 16.5591 29.2101 0
rclavicle 6.69479e-14 -5.28502e-15 0
rhumerus 15.1575 4.12932 -67.625
rradius 111.159 0 0
rwrist -57.874 0 0
rhand -28.3945 -24.0237 0
rfingers 7.12502 0 0
rthumb -1.76688 -773.991 0
619
root 5.60968 16.8307 -3.85085 22.4951 40.125 12.0836
lfemur -15.6843 22.6878 -21.4669
ltibia 36.0065 0 0
lfoot -32.3432 21.3162 0
ltoes 24.7455 0 0
rfemur -49.2897 -17.3472 24.0951
rtibia 62.0626 0 0
rfoot 8.03591 20.981 0
rtoes -2.44151 0 0
lowerback 1.39134 -3.50782 -3.79834
upperback -1.32839 -4.77072 1.75449
thorax -1.67264 -2.32728 4.06064
lowerneck -9.59559 -8.19345 0.667648
upperneck 15.8808 -11.8784 3.48004
head 6.54112 -5.39476 -0.0240778
lclavicle 6.11314e-14 -7.43214e-15 0
lhumerus -22.5548 -49.1186 97.7439
lradius 62.642 0 0
lwrist 19.9107 0 0
lhand -9.49226 -0.285551 0
lfingers 7.12502 0 0
lthumb 16.475 29.0754 0
rclavicle 6.11314e-14 -7.43214e-15 0
rhumerus 14.4184 4.5155 -66.9892
rradius 110.63 0 0
rwrist -57.5175 0 0
rhand -28.5521 -24.1098 0
rfingers 7.12502 0 0
rthumb -1.91906 -774.076 0
620
root 5.62775 16.8437 -3.85317 21.5544 39.406 10.9211
lfemur -15.3807 22.0001 -21.3194
ltibia 35.5701 0 0
lfoot -32.2996 20.5829 0
ltoes 25.1735 0 0
rfemur -48.6877 -17.1464 23.2828
rtibia 61.9989 0 0
rfoot 8.15132 19.4325 0
rtoes -2.66989 0 0
lowerback 1.16211 -3.47876 -3.65411
upperback -1.45188 -4.72062 1.86839
thorax -1.67864 -2.3011 4.08655
lowerneck -9.67685 -8.13654 0.735928
upperneck 15.9459 -11.8051 3.3777
head 6.56056 -5.36001 -0.0659647
lclavicle 5.50091e-14 -9.56911e-15 0
lhumerus -22.657 -49.5554 98.1173
lradius 63.2757 0 0
lwrist 19.9139 0 0
lhand -9.60291 -0.42901 0
lfingers 7.12502 0 0
lthumb 16.3684 28.9394 0
rclavicle 5.50091e-14 -9.56911e-15 0
rhumerus 13.6406 4.92718 -66.3724
rradius 110.102 0 0
rwrist -57.0775 0 0
rhand -28.7046 -24.2096 0
rfingers 7.12502 0 0
rthumb -2.06636 -774.174 0
